<svg width="32" height="32" viewBox="0 0 32 32" fill="none" xmlns="http://www.w3.org/2000/svg">
<path d="M7.33355 17.667C7.16022 17.667 6.98956 17.599 6.86156 17.4723L0.194997 10.8058C-0.064999 10.5458 -0.064999 10.1231 0.194997 9.86311L6.86156 3.19654C7.05356 3.00454 7.33889 2.94721 7.58822 3.05121C7.83754 3.15388 8.00021 3.39787 8.00021 3.6672V7.00048H21.3333C22.068 7.00048 22.6666 7.59914 22.6666 8.3338V12.3337C22.6666 13.0684 22.068 13.667 21.3333 13.667H8.00021V17.0003C8.00021 17.2697 7.83754 17.5137 7.58822 17.6163C7.50555 17.651 7.41888 17.667 7.33355 17.667ZM1.60964 10.3338L6.6669 15.391V13.0004C6.6669 12.6324 6.96556 12.3337 7.33355 12.3337H21.3333V8.3338H7.33355C6.96556 8.3338 6.6669 8.03513 6.6669 7.66714V5.27651L1.60964 10.3338Z" fill="#024497"/>
<path d="M24.6651 29.6664C24.5798 29.6664 24.4931 29.6504 24.4105 29.6158C24.1611 29.5131 23.9985 29.2691 23.9985 28.9998V25.6665H10.6653C9.93069 25.6665 9.33203 25.0678 9.33203 24.3332V20.3333C9.33203 19.5986 9.93069 18.9999 10.6653 18.9999H23.9985V15.6667C23.9985 15.3973 24.1611 15.1533 24.4105 15.0507C24.6611 14.948 24.9465 15.004 25.1371 15.1947L31.8037 21.8612C32.0637 22.1212 32.0637 22.5439 31.8037 22.8039L25.1371 29.4704C25.0091 29.5984 24.8385 29.6664 24.6651 29.6664ZM10.6653 20.3333V24.3332H24.6651C25.0331 24.3332 25.3318 24.6319 25.3318 24.9998V27.3905L30.389 22.3332L25.3318 17.276V19.6666C25.3318 20.0346 25.0331 20.3333 24.6651 20.3333H10.6653Z" fill="#024497"/>
</svg>
