<svg width="32" height="32" viewBox="0 0 32 32" fill="none" xmlns="http://www.w3.org/2000/svg">
<path d="M22.9331 16.3594C19.104 16.3594 16 19.3393 16 23.0153C16 26.6913 19.104 29.6712 22.9331 29.6712C26.7622 29.6712 29.8662 26.6913 29.8662 23.0153C29.8618 19.3411 26.7603 16.3636 22.9331 16.3594ZM22.9331 28.6473C19.6931 28.6473 17.0666 26.1257 17.0666 23.0153C17.0666 19.9049 19.6931 17.3834 22.9331 17.3834C26.173 17.3834 28.7995 19.9049 28.7995 23.0153C28.7957 26.1242 26.1714 28.6436 22.9331 28.6473Z" fill="#034497"/>
<path d="M26.1341 20.9684C26.1341 20.1201 25.4178 19.4324 24.5342 19.4324H24.0009V18.4084H22.9343V19.4324H22.4052L22.4137 18.4125L21.3471 18.4043L21.3386 19.4324H19.7344V20.4564H20.801V25.5763H19.7344V26.6003H21.3386L21.3471 27.6284L22.4137 27.6202L22.4052 26.6003H22.9343V27.6243H24.0009V26.6003H24.5342C25.4178 26.6003 26.1341 25.9126 26.1341 25.0643V24.0403C26.1327 23.6613 25.9845 23.2962 25.7182 23.0163C25.9845 22.7365 26.1327 22.3714 26.1341 21.9924V20.9684ZM25.0675 25.0643C25.0675 25.3471 24.8287 25.5763 24.5342 25.5763H21.8676V23.5283H24.5342C24.8287 23.5283 25.0675 23.7576 25.0675 24.0403V25.0643ZM25.0675 21.9924C25.0675 22.2751 24.8287 22.5044 24.5342 22.5044H21.8676V20.4564H24.5342C24.8287 20.4564 25.0675 20.6856 25.0675 20.9684V21.9924Z" fill="#034497"/>
<path d="M22.9335 14.3125C17.9263 14.3125 13.8672 18.2094 13.8672 23.0164C13.8672 27.8235 17.9263 31.7203 22.9335 31.7203C27.9408 31.7203 31.9999 27.8235 31.9999 23.0164C31.9943 18.2116 27.9384 14.3179 22.9335 14.3125ZM22.9335 30.6963C18.5154 30.6963 14.9338 27.2579 14.9338 23.0164C14.9338 18.7749 18.5154 15.3365 22.9335 15.3365C27.3516 15.3365 30.9332 18.7749 30.9332 23.0164C30.9282 27.2559 27.3496 30.6915 22.9335 30.6963Z" fill="#034497"/>
<path d="M9.0659 3.04688C5.23684 3.04688 2.13281 6.02681 2.13281 9.70281C2.13281 13.3788 5.23684 16.3587 9.0659 16.3587C12.8931 16.3545 15.9946 13.377 15.999 9.70281C15.999 6.02681 12.895 3.04688 9.0659 3.04688ZM9.0659 15.3348C5.82755 15.3311 3.20324 12.8117 3.19944 9.70281C3.19944 6.59238 5.82595 4.07087 9.0659 4.07087C12.3059 4.07087 14.9324 6.59238 14.9324 9.70281C14.9324 12.8132 12.3059 15.3348 9.0659 15.3348Z" fill="#034497"/>
<path d="M9.06635 1C4.05912 1 0 4.89686 0 9.70392C0 14.511 4.05912 18.4078 9.06635 18.4078C14.0712 18.4025 18.1271 14.5087 18.1327 9.70392C18.1327 4.89686 14.0736 1 9.06635 1ZM9.06635 17.3838C4.6503 17.379 1.07163 13.9434 1.06663 9.70392C1.06663 5.46242 4.64823 2.02399 9.06635 2.02399C13.4845 2.02399 17.0661 5.46242 17.0661 9.70392C17.0661 13.9454 13.4845 17.3838 9.06635 17.3838Z" fill="#034497"/>
<path d="M9.0611 9.19362C8.19393 9.19362 7.46116 8.72463 7.46116 8.16963C7.46116 7.61462 8.19393 7.14564 9.0611 7.14564C9.92827 7.14564 10.661 7.61462 10.661 8.16963C10.661 8.45238 10.8998 8.68162 11.1944 8.68162C11.4889 8.68162 11.7277 8.45238 11.7277 8.16963C11.7277 7.18045 10.8098 6.35358 9.59442 6.16312V5.09766H8.52779V6.16312C7.31237 6.35358 6.39453 7.18045 6.39453 8.16963C6.39453 9.29909 7.59076 10.2176 9.0611 10.2176C9.92827 10.2176 10.661 10.6866 10.661 11.2416C10.661 11.7966 9.92827 12.2656 9.0611 12.2656C8.19393 12.2656 7.46116 11.7966 7.46116 11.2416C7.46116 10.9588 7.22237 10.7296 6.92785 10.7296C6.63332 10.7296 6.39453 10.9588 6.39453 11.2416C6.39453 12.2308 7.31237 13.0576 8.52779 13.2481V14.3136H9.59442V13.2481C10.8098 13.0576 11.7277 12.2308 11.7277 11.2416C11.7277 10.1121 10.5315 9.19362 9.0611 9.19362Z" fill="#034497"/>
<path d="M22.9365 6.12004H20.4907L21.8427 4.82162L21.0886 4.09766L18.4492 6.63203L21.0886 9.16641L21.8427 8.44245L20.4907 7.14403H22.9365C25.5862 7.14684 27.7334 9.20826 27.7364 11.752V14.312H28.803V11.752C28.7992 8.64308 26.1749 6.12368 22.9365 6.12004Z" fill="#034497"/>
<path d="M10.3803 23.5538L9.62619 24.2777L10.9781 25.5761H9.06568C6.41604 25.5733 4.26878 23.5119 4.26585 20.9682V18.4082H3.19922V20.9682C3.20302 24.0771 5.82733 26.5965 9.06568 26.6001H10.9781L9.62619 27.8985L10.3803 28.6225L13.0197 26.0881L10.3803 23.5538Z" fill="#034497"/>
</svg>
