<svg width="32" height="32" viewBox="0 0 32 32" fill="none" xmlns="http://www.w3.org/2000/svg">
<path d="M25.9677 10.058H25.3374C25.0476 4.45707 20.8969 0 15.8358 0C10.7747 0 6.62406 4.45707 6.33426 10.058H5.50417C4.1233 10.058 3 11.1813 3 12.5621V29.4878C3 30.8687 4.1233 31.992 5.50417 31.992H13.1065C13.4522 31.992 13.7325 31.7117 13.7325 31.366C13.7325 31.0203 13.4522 30.74 13.1065 30.74H5.50417C4.81374 30.74 4.25196 30.1783 4.25196 29.4878V24.5469H7.8062C8.15215 24.5469 8.43242 24.2666 8.43242 23.9209C8.43242 23.5752 8.15215 23.2949 7.8062 23.2949H4.25196V19.3176H5.34377C5.68972 19.3176 5.97 19.0373 5.97 18.6916C5.97 18.3459 5.68972 18.0656 5.34377 18.0656H4.25196V12.5621C4.25196 11.8717 4.81374 11.3099 5.50417 11.3099H25.9677C26.6582 11.3099 27.2197 11.8717 27.2197 12.5621V18.0656H23.6303C23.2846 18.0656 23.0043 18.3459 23.0043 18.6916C23.0043 19.0373 23.2846 19.3176 23.6303 19.3176H27.2197V23.2949H23.6928C23.3471 23.2949 23.0668 23.5752 23.0668 23.9209C23.0668 24.2666 23.3471 24.5469 23.6928 24.5469H27.2197V29.4878C27.2197 30.1783 26.6582 30.74 25.9677 30.74H18.1356C17.7899 30.74 17.5097 31.0203 17.5097 31.366C17.5097 31.7117 17.7899 31.992 18.1356 31.992H25.9677C27.3484 31.992 28.4717 30.8687 28.4717 29.4878V12.5621C28.4717 11.1813 27.3484 10.058 25.9677 10.058ZM15.8358 1.25197C20.2094 1.25197 23.8 5.148 24.0835 10.058H21.3378C21.1008 6.63312 18.7238 3.93388 15.8358 3.93388C12.9476 3.93388 10.5706 6.63312 10.3338 10.058H7.58818C7.87163 5.148 11.4622 1.25197 15.8358 1.25197ZM20.0827 10.058H11.5889C11.8111 7.32478 13.631 5.18609 15.8358 5.18609C18.0407 5.18609 19.8605 7.32453 20.0827 10.058Z" fill="#034497"/>
<path d="M17.712 21.1202C18.4442 20.5477 18.8717 19.6788 18.8717 18.7328C18.8717 17.9957 18.6041 17.285 18.1185 16.7313C17.5521 16.086 16.7354 15.7091 15.878 15.6976C14.919 15.6837 13.9993 16.1385 13.4143 16.9117C13.0154 17.4395 12.803 18.0655 12.8008 18.7218C12.7974 19.629 13.1956 20.4781 13.8806 21.0543V24.434C13.8806 25.4904 14.74 26.3495 15.7964 26.3495C16.8526 26.3495 17.712 25.4902 17.712 24.434V21.1202ZM16.7608 20.2582C16.574 20.3717 16.46 20.5746 16.46 20.7931V24.434C16.46 24.7997 16.1622 25.0976 15.7964 25.0976C15.4305 25.0976 15.1329 24.7997 15.1329 24.434V20.7421C15.1329 20.5321 15.0276 20.3363 14.8528 20.2203C14.3496 19.8868 14.0506 19.3282 14.0528 18.7262C14.0542 18.3431 14.1787 17.9769 14.4131 17.6671C14.7539 17.2164 15.285 16.9493 15.8377 16.9493C15.8455 16.9493 15.8533 16.9493 15.8609 16.9495C16.3646 16.9564 16.8443 17.1778 17.1773 17.557C17.4625 17.8822 17.6195 18.2997 17.6195 18.7328C17.6197 19.3609 17.2986 19.9313 16.7608 20.2582Z" fill="#034497"/>
<path d="M16.2494 31.1214C16.1195 30.8011 15.7545 30.6466 15.4342 30.7765C15.1136 30.9064 14.9591 31.2714 15.089 31.5917L15.0956 31.608C15.1942 31.8514 15.4286 31.9991 15.6759 31.9991C15.7543 31.9991 15.8339 31.9842 15.9108 31.9532C16.2313 31.8234 16.3859 31.4584 16.256 31.1378L16.2494 31.1214Z" fill="#034497"/>
<path d="M7.57165 18.1024C7.25109 18.2316 7.09606 18.5963 7.22521 18.9171L7.2318 18.9332C7.33019 19.1771 7.56481 19.3253 7.81262 19.3253C7.8905 19.3253 7.96985 19.3107 8.04651 19.2797C8.36731 19.1503 8.52234 18.7855 8.39295 18.465L8.38635 18.4486C8.25696 18.128 7.89221 17.9728 7.57165 18.1024Z" fill="#034497"/>
</svg>
