<svg width="32" height="32" viewBox="0 0 32 32" fill="none" xmlns="http://www.w3.org/2000/svg">
<g clip-path="url(#clip0)">
<line x1="0.625" y1="31.375" x2="31.375" y2="31.375" stroke="#034497" stroke-width="1.25" stroke-linecap="round"/>
<path d="M4.625 10C4.625 9.24061 5.24061 8.625 6 8.625H8C8.75939 8.625 9.375 9.24061 9.375 10V31.375H4.625V10Z" stroke="#034497" stroke-width="1.25"/>
<path d="M13.625 18C13.625 17.2406 14.2406 16.625 15 16.625H17C17.7594 16.625 18.375 17.2406 18.375 18V31.375H13.625V18Z" stroke="#034497" stroke-width="1.25"/>
<path d="M22.625 24C22.625 23.2406 23.2406 22.625 24 22.625H26C26.7594 22.625 27.375 23.2406 27.375 24V31.375H22.625V24Z" stroke="#034497" stroke-width="1.25"/>
<path d="M28.6048 13.4588C28.2347 13.5085 27.984 13.8449 28.0328 14.2083L28.5291 17.9018L6.4317 2.87447C6.13939 2.65141 5.72313 2.70735 5.50008 2.99966C5.27702 3.29197 5.33295 3.70822 5.62526 3.93128L27.7227 18.9586L24.0292 19.4549C23.6658 19.5038 23.4084 19.841 23.4573 20.2044C23.5061 20.5678 23.8434 20.8252 24.2068 20.7764L29.4926 20.0661C29.856 20.0173 30.1134 19.68 30.0645 19.3166L29.3543 14.0308C29.3054 13.6674 28.9682 13.41 28.6048 13.4588Z" fill="#034497"/>
<circle cx="26" cy="7" r="1" fill="#034497"/>
<rect x="25.3086" y="3" width="1" height="6.32428" transform="rotate(33.4595 25.3086 3)" fill="#034497"/>
<circle cx="22" cy="5" r="1" fill="#034497"/>
<circle cx="24" cy="6" r="5.375" stroke="#034497" stroke-width="1.25"/>
</g>
<defs>
<clipPath id="clip0">
<rect width="32" height="32" fill="white"/>
</clipPath>
</defs>
</svg>
