<svg width="32" height="32" viewBox="0 0 32 32" fill="none" xmlns="http://www.w3.org/2000/svg">
<path d="M0.0617104 17.8368C0.349026 14.9468 1.64011 12.2224 3.69726 10.1651C5.45529 8.40717 7.60707 7.27747 9.87123 6.77515V5.18712C8.94647 4.95706 8.25908 4.11998 8.25908 3.12503C8.25908 1.95326 9.21235 1 10.3841 1H14.8842C16.0559 1 17.0092 1.95326 17.0092 3.12503C17.0092 4.11992 16.3218 4.957 15.3971 5.18712V6.77959C17.6543 7.28403 19.799 8.41217 21.552 10.1652C21.9357 10.5488 22.2894 10.9513 22.6132 11.3695C22.6289 11.3683 22.6446 11.3672 22.6606 11.3672H27.1145C27.4596 11.3672 27.7395 11.647 27.7395 11.9922C27.7395 12.3374 27.4596 12.6172 27.1145 12.6172H23.4637C23.9219 13.3844 24.2914 14.1901 24.5727 15.0195H31.375C31.7201 15.0195 32 15.2993 32 15.6445C32 15.9897 31.7201 16.2695 31.375 16.2695H24.9259C25.106 17.0602 25.2094 17.8649 25.2361 18.6718H27.9999C28.3451 18.6718 28.6249 18.9516 28.6249 19.2968C28.6249 19.642 28.3451 19.9218 27.9999 19.9218H25.2161C25.1634 20.7309 25.0333 21.5356 24.8259 22.3242H28.875C29.2201 22.3242 29.5 22.604 29.5 22.9492C29.5 23.2944 29.2201 23.5742 28.875 23.5742H24.427C23.8139 25.1962 22.8557 26.7164 21.552 28.02C19.4929 30.0792 16.7656 31.3706 13.8727 31.6564C13.4598 31.6971 13.0466 31.7173 12.634 31.7173C10.195 31.7173 7.78714 31.0115 5.74398 29.681C5.45473 29.4926 5.37291 29.1054 5.56129 28.8162C5.74967 28.5269 6.13686 28.4451 6.42612 28.6335C10.8985 31.5458 16.8881 30.9161 20.6681 27.1361C25.1033 22.7009 25.1033 15.4844 20.6681 11.0492C16.233 6.61402 9.01647 6.61402 4.58121 11.0492C0.806221 14.8242 0.173086 20.8087 3.07582 25.2789C3.26382 25.5684 3.18151 25.9556 2.89206 26.1435C2.60243 26.3315 2.21543 26.2492 2.02749 25.9597C0.476589 23.5712 -0.221546 20.6865 0.0617104 17.8368ZM15.7592 3.12509C15.7592 2.64259 15.3667 2.25008 14.8842 2.25008H10.3841C9.90161 2.25008 9.5091 2.64259 9.5091 3.12509C9.5091 3.6076 9.90161 4.00011 10.3841 4.00011H10.4962H14.7721H14.8842C15.3667 4.00011 15.7592 3.60754 15.7592 3.12509ZM14.1471 6.56471V5.25013H11.1213V6.56246C12.126 6.44296 13.1425 6.44371 14.1471 6.56471Z" fill="#024497"/>
<path d="M4.13672 26.9531C4.30172 26.9531 4.46234 27.02 4.57853 27.1362C4.69541 27.2525 4.76172 27.4137 4.76172 27.5781C4.76172 27.7425 4.69541 27.9037 4.57853 28.02C4.46234 28.1369 4.30166 28.2031 4.13672 28.2031C3.97234 28.2031 3.81172 28.1369 3.69484 28.02C3.57859 27.9037 3.51172 27.7425 3.51172 27.5781C3.51172 27.4137 3.57853 27.2525 3.69484 27.1362C3.81172 27.02 3.97241 26.9531 4.13672 26.9531Z" fill="#024497"/>
<path d="M12.6246 9.39648C17.9708 9.39648 22.3203 13.7459 22.3203 19.0922C22.3203 24.4385 17.9708 28.7879 12.6246 28.7879C7.27839 28.7879 2.92889 24.4385 2.92889 19.0922C2.92889 13.7459 7.27839 9.39648 12.6246 9.39648ZM12.6246 27.5379C17.2816 27.5379 21.0703 23.7491 21.0703 19.0922C21.0703 14.4352 17.2816 10.6465 12.6246 10.6465C7.96759 10.6465 4.17891 14.4352 4.17891 19.0922C4.17891 23.7491 7.96759 27.5379 12.6246 27.5379Z" fill="#024497"/>
<path d="M8.67359 14.2553L11.7693 17.3509C12.0281 17.2229 12.3193 17.1506 12.6272 17.1506C12.935 17.1506 13.2262 17.2229 13.485 17.3509L14.8705 15.9655C15.1146 15.7214 15.5103 15.7214 15.7545 15.9655C15.9985 16.2095 15.9985 16.6053 15.7545 16.8494L14.369 18.2348C14.4971 18.4937 14.5693 18.7849 14.5693 19.0927C14.5693 20.1636 13.6981 21.0349 12.6272 21.0349C11.5562 21.0349 10.685 20.1636 10.685 19.0927C10.685 18.7849 10.7573 18.4937 10.8853 18.2348L7.88052 15.23L7.78971 15.1392C7.54564 14.8951 7.54564 14.4994 7.78971 14.2553C8.03377 14.0112 8.4294 14.0112 8.67359 14.2553ZM12.6272 19.7849C13.0088 19.7849 13.3193 19.4744 13.3193 19.0928C13.3193 18.7111 13.0088 18.4006 12.6272 18.4006C12.2455 18.4006 11.935 18.7111 11.935 19.0928C11.935 19.4744 12.2455 19.7849 12.6272 19.7849Z" fill="#024497"/>
<path d="M5.94047 18.4746H6.51953C6.86466 18.4746 7.14453 18.7544 7.14453 19.0996C7.14453 19.4448 6.86466 19.7246 6.51953 19.7246H5.94047C5.59535 19.7246 5.31547 19.4448 5.31547 19.0996C5.31547 18.7544 5.59535 18.4746 5.94047 18.4746Z" fill="#024497"/>
<path d="M18.7296 18.4609H19.3086C19.6537 18.4609 19.9336 18.7408 19.9336 19.0859C19.9336 19.4311 19.6537 19.7109 19.3086 19.7109H18.7296C18.3845 19.7109 18.1046 19.4311 18.1046 19.0859C18.1046 18.7408 18.3845 18.4609 18.7296 18.4609Z" fill="#024497"/>
<path d="M12.6211 13.6142C12.276 13.6142 11.9961 13.3343 11.9961 12.9892V12.4102C11.9961 12.065 12.276 11.7852 12.6211 11.7852C12.9662 11.7852 13.2461 12.065 13.2461 12.4102V12.9892C13.2461 13.3343 12.9662 13.6142 12.6211 13.6142Z" fill="#024497"/>
<path d="M12.6328 24.5723C12.9779 24.5723 13.2578 24.8521 13.2578 25.1973V25.7763C13.2578 26.1215 12.9779 26.4013 12.6328 26.4013C12.2877 26.4013 12.0078 26.1215 12.0078 25.7763V25.1973C12.0078 24.8521 12.2877 24.5723 12.6328 24.5723Z" fill="#024497"/>
<path d="M31.375 22.3242C31.5394 22.3242 31.7006 22.3911 31.8169 22.5073C31.9331 22.6236 32 22.7848 32 22.9492C32 23.1142 31.9332 23.2748 31.8169 23.3911C31.7006 23.5073 31.5394 23.5742 31.375 23.5742C31.2106 23.5742 31.0494 23.5073 30.9332 23.3911C30.8169 23.2748 30.75 23.1136 30.75 22.9492C30.75 22.7848 30.8169 22.6236 30.9332 22.5073C31.0494 22.3911 31.2106 22.3242 31.375 22.3242Z" fill="#024497"/>
</svg>
